<svg width="20" height="13" viewBox="0 0 20 13" fill="none" xmlns="http://www.w3.org/2000/svg">
<path fill-rule="evenodd" clip-rule="evenodd" d="M12.7515 0.851588C12.9765 0.626623 13.2817 0.500244 13.5999 0.500244C13.9181 0.500244 14.2233 0.626623 14.4483 0.851588L19.2483 5.65158C19.4733 5.87662 19.5996 6.18179 19.5996 6.49998C19.5996 6.81818 19.4733 7.12335 19.2483 7.34838L14.4483 12.1484C14.222 12.367 13.9189 12.4879 13.6042 12.4852C13.2896 12.4825 12.9886 12.3563 12.7661 12.1338C12.5436 11.9113 12.4174 11.6103 12.4147 11.2957C12.412 10.981 12.5329 10.6779 12.7515 10.4516L15.5031 7.69998H1.5999C1.28164 7.69998 0.976418 7.57355 0.751374 7.34851C0.526331 7.12347 0.399902 6.81824 0.399902 6.49998C0.399902 6.18172 0.526331 5.8765 0.751374 5.65146C0.976418 5.42641 1.28164 5.29998 1.5999 5.29998H15.5031L12.7515 2.54839C12.5265 2.32335 12.4002 2.01818 12.4002 1.69999C12.4002 1.38179 12.5265 1.07662 12.7515 0.851588Z" fill="#AF4A80"/>
</svg>
