<svg width="12" height="20" viewBox="0 0 12 20" fill="#333333" xmlns="http://www.w3.org/2000/svg">
<path fill-rule="evenodd" clip-rule="evenodd" d="M11.6482 12.7516C11.8731 12.9766 11.9995 13.2818 11.9995 13.6C11.9995 13.9182 11.8731 14.2234 11.6482 14.4484L6.84817 19.2484C6.62314 19.4734 6.31797 19.5997 5.99977 19.5997C5.68157 19.5997 5.3764 19.4734 5.15137 19.2484L0.351369 14.4484C0.132779 14.2221 0.0118265 13.9189 0.0145607 13.6043C0.0172939 13.2897 0.143497 12.9887 0.365987 12.7662C0.588476 12.5437 0.889452 12.4175 1.20409 12.4148C1.51872 12.4121 1.82185 12.533 2.04817 12.7516L4.79977 15.5032L4.79977 1.59999C4.79977 1.28173 4.9262 0.976509 5.15124 0.751466C5.37628 0.526422 5.68151 0.399994 5.99977 0.399994C6.31803 0.399994 6.62325 0.526422 6.8483 0.751466C7.07334 0.976509 7.19977 1.28173 7.19977 1.59999L7.19977 15.5032L9.95137 12.7516C10.1764 12.5266 10.4816 12.4002 10.7998 12.4002C11.118 12.4002 11.4231 12.5266 11.6482 12.7516Z" fill="#333333"/>
</svg>
