<svg width="28" height="28" viewBox="0 0 28 28" fill="none" xmlns="http://www.w3.org/2000/svg">
<path d="M8.40002 0.666626H19.6C23.8667 0.666626 27.3334 4.13329 27.3334 8.39996V19.6C27.3334 21.651 26.5186 23.618 25.0683 25.0683C23.618 26.5185 21.651 27.3333 19.6 27.3333H8.40002C4.13335 27.3333 0.666687 23.8666 0.666687 19.6V8.39996C0.666687 6.34895 1.48145 4.38195 2.93173 2.93167C4.38201 1.48139 6.34901 0.666626 8.40002 0.666626ZM8.13335 3.33329C6.86031 3.33329 5.63942 3.83901 4.73924 4.73918C3.83907 5.63936 3.33335 6.86025 3.33335 8.13329V19.8666C3.33335 22.52 5.48002 24.6666 8.13335 24.6666H19.8667C21.1397 24.6666 22.3606 24.1609 23.2608 23.2607C24.161 22.3606 24.6667 21.1397 24.6667 19.8666V8.13329C24.6667 5.47996 22.52 3.33329 19.8667 3.33329H8.13335ZM21 5.33329C21.442 5.33329 21.866 5.50889 22.1785 5.82145C22.4911 6.13401 22.6667 6.55793 22.6667 6.99996C22.6667 7.44199 22.4911 7.86591 22.1785 8.17847C21.866 8.49103 21.442 8.66663 21 8.66663C20.558 8.66663 20.1341 8.49103 19.8215 8.17847C19.5089 7.86591 19.3334 7.44199 19.3334 6.99996C19.3334 6.55793 19.5089 6.13401 19.8215 5.82145C20.1341 5.50889 20.558 5.33329 21 5.33329ZM14 7.33329C15.7681 7.33329 17.4638 8.03567 18.7141 9.28591C19.9643 10.5362 20.6667 12.2318 20.6667 14C20.6667 15.7681 19.9643 17.4638 18.7141 18.714C17.4638 19.9642 15.7681 20.6666 14 20.6666C12.2319 20.6666 10.5362 19.9642 9.28598 18.714C8.03573 17.4638 7.33335 15.7681 7.33335 14C7.33335 12.2318 8.03573 10.5362 9.28598 9.28591C10.5362 8.03567 12.2319 7.33329 14 7.33329ZM14 9.99996C12.9392 9.99996 11.9217 10.4214 11.1716 11.1715C10.4214 11.9217 10 12.9391 10 14C10 15.0608 10.4214 16.0782 11.1716 16.8284C11.9217 17.5785 12.9392 18 14 18C15.0609 18 16.0783 17.5785 16.8284 16.8284C17.5786 16.0782 18 15.0608 18 14C18 12.9391 17.5786 11.9217 16.8284 11.1715C16.0783 10.4214 15.0609 9.99996 14 9.99996Z" fill="white"/>
</svg>
