<svg width="177" height="48" viewBox="0 0 177 48" fill="none" xmlns="http://www.w3.org/2000/svg">
<g opacity="0.6">
<path d="M6.00827 35L6.00827 13C6.00827 12.7348 6.11363 12.4804 6.30116 12.2929C6.4887 12.1054 6.74305 12 7.00827 12C7.27349 12 7.52784 12.1054 7.71538 12.2929C7.90291 12.4804 8.00827 12.7348 8.00827 13L8.00827 22.2125L22.9708 13.075C23.2843 12.8873 23.6428 12.788 24.0083 12.7875C24.3497 12.7829 24.6862 12.8692 24.9833 13.0375C25.2955 13.2103 25.5554 13.464 25.7358 13.7719C25.9161 14.0798 26.0103 14.4307 26.0083 14.7875L26.0083 33.2125C26.0087 33.5675 25.9147 33.9162 25.7359 34.2229C25.557 34.5295 25.2997 34.783 24.9905 34.9573C24.6813 35.1317 24.3312 35.2206 23.9762 35.2149C23.6213 35.2092 23.2743 35.1092 22.9708 34.925L8.00827 25.7875V35C8.00827 35.2652 7.90291 35.5196 7.71538 35.7071C7.52784 35.8946 7.27349 36 7.00827 36C6.74305 36 6.4887 35.8946 6.30116 35.7071C6.11363 35.5196 6.00827 35.2652 6.00827 35Z" fill="white"/>
</g>
<path d="M83.0083 18.65V29.35C83.0083 30.1167 83.3583 30.7 84.0583 31.1C84.7583 31.5 85.4416 31.4667 86.1083 31L94.4083 25.7C95.0416 25.3 95.3583 24.7333 95.3583 24C95.3583 23.2667 95.0416 22.7 94.4083 22.3L86.1083 17C85.4416 16.5333 84.7583 16.5 84.0583 16.9C83.3583 17.3 83.0083 17.8833 83.0083 18.65ZM88.0083 44C85.2416 44 82.6416 43.4747 80.2083 42.424C77.775 41.3747 75.6583 39.95 73.8583 38.15C72.0583 36.35 70.6336 34.2333 69.5843 31.8C68.5336 29.3667 68.0083 26.7667 68.0083 24C68.0083 21.2333 68.5336 18.6333 69.5843 16.2C70.6336 13.7667 72.0583 11.65 73.8583 9.85C75.6583 8.05 77.775 6.62467 80.2083 5.574C82.6416 4.52467 85.2416 4 88.0083 4C90.775 4 93.375 4.52467 95.8083 5.574C98.2416 6.62467 100.358 8.05 102.158 9.85C103.958 11.65 105.383 13.7667 106.432 16.2C107.483 18.6333 108.008 21.2333 108.008 24C108.008 26.7667 107.483 29.3667 106.432 31.8C105.383 34.2333 103.958 36.35 102.158 38.15C100.358 39.95 98.2416 41.3747 95.8083 42.424C93.375 43.4747 90.775 44 88.0083 44Z" fill="white"/>
<g opacity="0.6">
<path d="M170.008 13V35C170.008 35.2652 169.903 35.5196 169.715 35.7071C169.528 35.8946 169.274 36 169.008 36C168.743 36 168.489 35.8946 168.301 35.7071C168.114 35.5196 168.008 35.2652 168.008 35V25.7875L153.046 34.925C152.732 35.1127 152.374 35.212 152.008 35.2125C151.667 35.2171 151.33 35.1308 151.033 34.9625C150.721 34.7897 150.461 34.536 150.281 34.2281C150.1 33.9202 150.006 33.5693 150.008 33.2125V14.7875C150.008 14.4325 150.102 14.0838 150.281 13.7771C150.46 13.4705 150.717 13.217 151.026 13.0427C151.335 12.8683 151.685 12.7794 152.04 12.7851C152.395 12.7908 152.742 12.8908 153.046 13.075L168.008 22.2125V13C168.008 12.7348 168.114 12.4804 168.301 12.2929C168.489 12.1054 168.743 12 169.008 12C169.274 12 169.528 12.1054 169.715 12.2929C169.903 12.4804 170.008 12.7348 170.008 13Z" fill="white"/>
</g>
</svg>
